Coordinates
version=1
nRows=7
nColumns=42
inDegrees=yes

Units are S.I. units (second, meters, Newtons, ...)
If the header above contains a line with 'inDegrees', this indicates whether rotational values are in degrees (yes) or radians (no).

endheader
time	pelvis_tilt	pelvis_list	pelvis_rotation	pelvis_tx	pelvis_ty	pelvis_tz	hip_flexion_r	hip_adduction_r	hip_rotation_r	knee_angle_r	knee_angle_r_beta	ankle_angle_r	subtalar_angle_r	mtp_angle_r	hip_flexion_l	hip_adduction_l	hip_rotation_l	knee_angle_l	knee_angle_l_beta	ankle_angle_l	subtalar_angle_l	mtp_angle_l	lumbar_extension	lumbar_bending	lumbar_rotation	sh_tx_r	sh_ty_r	sh_tz_r	sh_plane_elev_r	sh_elev_r	sh_axial_rot_r	elbow_flex_r	pro_sup_r	sh_tx_l	sh_ty_l	sh_tz_l	sh_plane_elev_l	sh_elev_l	sh_axial_rot_l	elbow_flex_l	pro_sup_l
      5.55000000	     -5.04471985	     -0.30406150	      0.15463696	      0.28357445	      0.93360185	     -0.04795613	      1.08108528	     -6.28708163	     -8.85566806	      2.51747069	      0.04393815	      3.01599552	     -1.60376718	     -7.49999987	      2.99405362	     -3.22002234	    -11.48473506	      1.04407182	      0.01822249	      4.94166327	     -3.61343808	     -7.49999987	      5.04070287	      6.73413711	     -1.03037666	      0.00787181	     -0.00715231	     -0.00658095	     -1.31899283	      7.10910961	      2.45398204	     25.77486880	     99.41039663	     -0.00726865	      0.03143936	     -0.00642941	      0.20412490	     76.25949924	    -66.97623498	    109.05937477	     81.29482862
      5.56666670	     -5.05207675	     -0.31169876	      0.16117311	      0.28353389	      0.93089347	     -0.04804456	      1.07650596	     -6.26426441	     -8.76318649	      2.50734566	      0.04376144	      2.97668503	     -1.70410204	     -7.49999987	      3.00732546	     -3.22511890	    -11.43776096	      1.04173988	      0.01818179	      4.93172601	     -3.76206472	     -7.49999987	      5.00562817	      6.76270247	     -1.30143544	      0.00872325	     -0.00686214	     -0.00665277	     -1.56667746	      7.02064599	      2.90693693	     26.01547055	     97.29386258	     -0.00780966	      0.03092353	     -0.00645389	     -0.16825148	     76.61455420	    -67.13763275	    108.82329057	     80.32563745
      5.58333330	     -5.06050122	     -0.29535720	      0.14315112	      0.28357114	      0.93350993	     -0.04787639	      1.09313829	     -6.28673144	     -8.78559568	      2.51146044	      0.04383325	      2.98021881	     -1.55393394	     -7.49999987	      3.00894709	     -3.21506808	    -11.46561696	      1.01813237	      0.01776976	      4.89462766	     -3.65036744	     -7.49999987	      5.12096927	      6.75839385	     -1.14559796	      0.00874939	     -0.00694012	     -0.00660300	     -1.89108995	      7.05938176	      2.84576749	     25.91302881	    100.18645700	     -0.00716340	      0.03099803	     -0.00642960	      0.03533922	     76.51261473	    -66.99327417	    108.76083275	     81.92798477
      5.60000000	     -5.23042401	     -0.31578153	      0.10672420	      0.28307492	      0.93338377	     -0.04806563	      1.53320158	     -6.30963537	     -8.78763786	      2.94841917	      0.05145962	      3.21920622	     -1.44593030	     -7.49999987	      3.46431550	     -3.27725982	    -11.52369762	      1.56229018	      0.02726711	      5.13022597	     -3.66716828	     -7.49999987	      5.25612606	      7.00320856	     -0.97041233	      0.00788803	     -0.00498631	     -0.00598499	     -1.03670346	      7.27853319	      3.99949944	     25.98167374	     94.60718170	     -0.00602613	      0.02935342	     -0.00568668	     -0.07270127	     76.52653395	    -66.78187136	    108.53547838	     79.81144543
      5.61666670	     -4.93763870	     -0.24963869	      0.11598099	      0.28369534	      0.93653193	     -0.04816075	      0.90883203	     -6.32754235	     -8.82838430	      2.39717410	      0.04183858	      2.93077829	     -1.38917499	     -7.49999987	      2.84954988	     -3.15892787	    -11.47854595	      0.98776067	      0.01723968	      4.74334272	     -3.64272679	     -7.49999987	      5.04573186	      6.78338080	     -1.29608014	      0.00958595	     -0.00756915	     -0.00667653	     -1.03386698	      7.14316681	      3.92172871	     25.69745835	     93.57408655	     -0.00665857	      0.03091519	     -0.00641380	     -0.27849025	     76.39409224	    -66.70863144	    108.65940385	     79.57648418
      5.63333330	     -5.06028248	     -0.26722766	      0.10284105	      0.28360663	      0.93027840	     -0.04801462	      1.08688199	     -6.32841787	     -8.78967521	      2.42482091	      0.04232111	      2.88382297	     -1.40348121	     -7.49999987	      2.97185512	     -3.16407629	    -11.49429517	      0.98246801	      0.01714730	      4.74606394	     -3.70787351	     -7.49999987	      5.18932374	      6.87594924	     -1.27654870	      0.00932171	     -0.00721818	     -0.00665503	     -0.94961018	      7.15729966	      3.91541054	     25.59568592	     92.45954117	     -0.00686770	      0.03049793	     -0.00645976	     -0.20863188	     76.77777842	    -66.87105592	    108.24475801	     78.86357200
      5.65000000	     -5.02788603	     -0.27293400	      0.01639664	      0.28369146	      0.93012313	     -0.04789553	      1.08675263	     -6.33300350	     -8.62169048	      2.41254546	      0.04210686	      2.81309253	     -1.57092443	     -7.49999987	      2.90549145	     -3.17215200	    -11.63885180	      0.97330010	      0.01698729	      4.93553231	     -3.46678522	     -7.49999987	      5.06419003	      6.98135853	     -1.22971750	      0.00873698	     -0.00683933	     -0.00664845	     -1.33230170	      7.17333897	      2.16548295	     25.89546869	     99.87912477	     -0.00674360	      0.02995866	     -0.00648470	     -0.55171866	     77.17134179	    -66.82146058	    107.93070166	     81.89684197
